<svg xmlns="http://www.w3.org/2000/svg" viewBox="0 0 640 300" width="640" height="300"><rect width="640" height="300" fill="#1C2340"></rect><circle cx="266" cy="96" r="1" fill="#ECE3CC" opacity="0.6"></circle><circle cx="260" cy="18" r="1" fill="#ECE3CC" opacity="0.4"></circle><circle cx="385" cy="125" r="1" fill="#ECE3CC" opacity="0.6"></circle><circle cx="561" cy="31" r="1" fill="#ECE3CC" opacity="0.4"></circle><circle cx="226" cy="109" r="1.5" fill="#ECE3CC" opacity="0.4"></circle><circle cx="403" cy="45" r="1" fill="#ECE3CC" opacity="0.4"></circle><circle cx="460" cy="37" r="1" fill="#ECE3CC" opacity="0.4"></circle><circle cx="10" cy="58" r="1" fill="#ECE3CC" opacity="0.4"></circle><circle cx="175" cy="79" r="1.5" fill="#ECE3CC" opacity="0.4"></circle><circle cx="557" cy="57" r="1" fill="#ECE3CC" opacity="0.8"></circle><circle cx="206" cy="103" r="1.5" fill="#ECE3CC" opacity="0.4"></circle><circle cx="374" cy="111" r="1" fill="#ECE3CC" opacity="0.4"></circle><circle cx="275" cy="21" r="1.5" fill="#ECE3CC" opacity="0.6"></circle><circle cx="622" cy="5" r="1.5" fill="#ECE3CC" opacity="0.4"></circle><circle cx="322" cy="95" r="1.5" fill="#ECE3CC" opacity="0.6"></circle><circle cx="328" cy="52" r="2" fill="#ECE3CC" opacity="0.6"></circle><circle cx="185" cy="19" r="1.5" fill="#ECE3CC" opacity="0.4"></circle><circle cx="371" cy="108" r="1" fill="#ECE3CC" opacity="0.8"></circle><circle cx="433" cy="98" r="2" fill="#ECE3CC" opacity="0.8"></circle><circle cx="14" cy="120" r="1" fill="#ECE3CC" opacity="0.8"></circle><circle cx="190" cy="55" r="1" fill="#ECE3CC" opacity="0.4"></circle><circle cx="478" cy="93" r="1.5" fill="#ECE3CC" opacity="0.8"></circle><circle cx="261" cy="123" r="1" fill="#ECE3CC" opacity="0.8"></circle><circle cx="381" cy="80" r="1" fill="#ECE3CC" opacity="0.6"></circle><circle cx="98" cy="58" r="1.5" fill="#ECE3CC" opacity="0.8"></circle><circle cx="630" cy="97" r="1" fill="#ECE3CC" opacity="0.6"></circle><circle cx="287" cy="28" r="1.5" fill="#ECE3CC" opacity="0.8"></circle><circle cx="329" cy="83" r="1" fill="#ECE3CC" opacity="0.4"></circle><circle cx="157" cy="84" r="2" fill="#ECE3CC" opacity="0.4"></circle><circle cx="54" cy="25" r="2" fill="#ECE3CC" opacity="0.4"></circle><circle cx="248" cy="93" r="1.5" fill="#ECE3CC" opacity="0.6"></circle><circle cx="436" cy="42" r="1" fill="#ECE3CC" opacity="0.8"></circle><circle cx="38" cy="131" r="1.5" fill="#ECE3CC" opacity="0.4"></circle><circle cx="138" cy="38" r="2" fill="#ECE3CC" opacity="0.4"></circle><circle cx="177" cy="116" r="1.5" fill="#ECE3CC" opacity="0.4"></circle><circle cx="65" cy="112" r="1.5" fill="#ECE3CC" opacity="0.4"></circle><circle cx="469" cy="48" r="2" fill="#ECE3CC" opacity="0.6"></circle><circle cx="330" cy="127" r="1.5" fill="#ECE3CC" opacity="0.6"></circle><circle cx="486" cy="108" r="1" fill="#ECE3CC" opacity="0.4"></circle><circle cx="391" cy="50" r="2" fill="#ECE3CC" opacity="0.6"></circle><circle cx="189" cy="27" r="2" fill="#ECE3CC" opacity="0.6"></circle><circle cx="532" cy="133" r="1.5" fill="#ECE3CC" opacity="0.4"></circle><circle cx="369" cy="13" r="1.5" fill="#ECE3CC" opacity="0.6"></circle><circle cx="577" cy="76" r="2" fill="#ECE3CC" opacity="0.6"></circle><circle cx="305" cy="92" r="1" fill="#ECE3CC" opacity="0.8"></circle><circle cx="16" cy="126" r="1.5" fill="#ECE3CC" opacity="0.6"></circle><circle cx="285" cy="123" r="1.5" fill="#ECE3CC" opacity="0.8"></circle><circle cx="370" cy="94" r="1.5" fill="#ECE3CC" opacity="0.8"></circle><circle cx="358" cy="109" r="1.5" fill="#ECE3CC" opacity="0.4"></circle><circle cx="465" cy="98" r="1.5" fill="#ECE3CC" opacity="0.8"></circle><path d="M0,200 L90,150 L170,190 L260,120 L340,40 L420,110 L520,150 L640,130 L640,300 L0,300 Z" fill="#34405E"></path><path d="M340,40 L360,58 L348,62 L366,80 L330,70 L320,60 Z" fill="#4C5878"></path><path d="M200,260 L260,230 L300,200 L280,170 L320,140 L310,110 L336,70" stroke="#C9B48A" stroke-width="2.5" fill="none" stroke-dasharray="6 6" opacity="0.7"></path><rect x="332" y="26" width="16" height="16" fill="#2A2230"></rect><path d="M328,26 L352,26 L346,18 L334,18 Z" fill="#5B3A25"></path><path d="M0,190 C160,170 320,200 480,180 C560,172 600,180 640,176 L640,210 C480,214 320,200 160,212 C100,216 40,210 0,214 Z" fill="#9AA2B5" opacity="0.18"></path><path d="M0,262 C160,250 320,272 480,258 C560,252 600,262 640,256 L640,300 L0,300 Z" fill="#262D45"></path></svg>