<svg xmlns="http://www.w3.org/2000/svg" viewBox="0 0 640 300" width="640" height="300"><rect width="640" height="300" fill="#1E2B4D"></rect><circle cx="142" cy="150" r="1" fill="#ECE3CC" opacity="0.6"></circle><circle cx="125" cy="131" r="2" fill="#ECE3CC" opacity="0.6"></circle><circle cx="393" cy="58" r="1" fill="#ECE3CC" opacity="0.6"></circle><circle cx="34" cy="104" r="2" fill="#ECE3CC" opacity="0.8"></circle><circle cx="7" cy="119" r="1.5" fill="#ECE3CC" opacity="0.8"></circle><circle cx="239" cy="31" r="1.5" fill="#ECE3CC" opacity="0.4"></circle><circle cx="27" cy="11" r="1" fill="#ECE3CC" opacity="0.6"></circle><circle cx="226" cy="113" r="1" fill="#ECE3CC" opacity="0.8"></circle><circle cx="232" cy="117" r="2" fill="#ECE3CC" opacity="0.8"></circle><circle cx="243" cy="93" r="1" fill="#ECE3CC" opacity="0.8"></circle><circle cx="229" cy="122" r="1.5" fill="#ECE3CC" opacity="0.4"></circle><circle cx="431" cy="147" r="1" fill="#ECE3CC" opacity="0.4"></circle><circle cx="308" cy="35" r="1.5" fill="#ECE3CC" opacity="0.8"></circle><circle cx="517" cy="113" r="1" fill="#ECE3CC" opacity="0.6"></circle><circle cx="295" cy="132" r="2" fill="#ECE3CC" opacity="0.8"></circle><circle cx="40" cy="127" r="1" fill="#ECE3CC" opacity="0.8"></circle><circle cx="418" cy="111" r="1" fill="#ECE3CC" opacity="0.6"></circle><circle cx="566" cy="100" r="1" fill="#ECE3CC" opacity="0.6"></circle><circle cx="525" cy="32" r="1" fill="#ECE3CC" opacity="0.8"></circle><circle cx="407" cy="99" r="2" fill="#ECE3CC" opacity="0.8"></circle><circle cx="35" cy="125" r="1" fill="#ECE3CC" opacity="0.6"></circle><circle cx="634" cy="105" r="1" fill="#ECE3CC" opacity="0.4"></circle><circle cx="519" cy="63" r="1" fill="#ECE3CC" opacity="0.4"></circle><circle cx="557" cy="145" r="1" fill="#ECE3CC" opacity="0.6"></circle><circle cx="531" cy="93" r="1.5" fill="#ECE3CC" opacity="0.6"></circle><circle cx="280" cy="145" r="1" fill="#ECE3CC" opacity="0.6"></circle><circle cx="529" cy="38" r="1" fill="#ECE3CC" opacity="0.6"></circle><circle cx="62" cy="128" r="1.5" fill="#ECE3CC" opacity="0.8"></circle><circle cx="572" cy="56" r="2" fill="#ECE3CC" opacity="0.6"></circle><circle cx="370" cy="111" r="1.5" fill="#ECE3CC" opacity="0.4"></circle><circle cx="556" cy="143" r="1.5" fill="#ECE3CC" opacity="0.6"></circle><circle cx="619" cy="12" r="1" fill="#ECE3CC" opacity="0.8"></circle><circle cx="186" cy="145" r="1" fill="#ECE3CC" opacity="0.4"></circle><circle cx="569" cy="70" r="1" fill="#ECE3CC" opacity="0.8"></circle><circle cx="77" cy="26" r="1" fill="#ECE3CC" opacity="0.6"></circle><circle cx="19" cy="76" r="1" fill="#ECE3CC" opacity="0.6"></circle><circle cx="117" cy="52" r="1.5" fill="#ECE3CC" opacity="0.6"></circle><circle cx="76" cy="47" r="1" fill="#ECE3CC" opacity="0.6"></circle><circle cx="545" cy="48" r="1.5" fill="#ECE3CC" opacity="0.8"></circle><circle cx="306" cy="121" r="1.5" fill="#ECE3CC" opacity="0.6"></circle><circle cx="520" cy="62" r="22" fill="#E9E4D4" opacity="0.75"></circle><circle cx="530" cy="56" r="20" fill="#1E2B4D" opacity="0.6"></circle><rect y="180" width="640" height="120" fill="#27456A"></rect><path d="M200,196 l40,0" stroke="#4E6F96" stroke-width="2" opacity="0.6"></path><path d="M320,212 l40,0" stroke="#4E6F96" stroke-width="2" opacity="0.6"></path><path d="M460,230 l40,0" stroke="#4E6F96" stroke-width="2" opacity="0.6"></path><path d="M540,204 l40,0" stroke="#4E6F96" stroke-width="2" opacity="0.6"></path><path d="M0,120 L60,108 L130,130 L170,190 L0,190 Z" fill="#18233D"></path><path d="M72,112 L90,112 L94,176 L68,176 Z" fill="#D8D0BC"></path><path d="M70,130 L92,130 L93,142 L69,142 Z M69,156 L93,156 L94,166 L68,166 Z" fill="#B5473A"></path><rect x="72" y="98" width="18" height="14" fill="#2A3048"></rect><path d="M68,98 L81,86 L94,98 Z" fill="#B5473A"></path><rect x="420" y="140" width="40" height="30" fill="#2A3655"></rect><path d="M414,140 L440,120 L466,140 Z" fill="#3A2F3A"></path><path d="M426,170 L426,188 M454,170 L454,188" stroke="#2A3655" stroke-width="3"></path><rect x="470" y="132" width="40" height="38" fill="#2A3655"></rect><path d="M464,132 L490,112 L516,132 Z" fill="#3A2F3A"></path><path d="M476,170 L476,188 M504,170 L504,188" stroke="#2A3655" stroke-width="3"></path><rect x="530" y="140" width="40" height="30" fill="#2A3655"></rect><path d="M524,140 L550,120 L576,140 Z" fill="#3A2F3A"></path><path d="M536,170 L536,188 M564,170 L564,188" stroke="#2A3655" stroke-width="3"></path><rect x="545" y="148" width="10" height="10" fill="#F0A23B" opacity="0.8"></rect><rect x="590" y="132" width="40" height="38" fill="#2A3655"></rect><path d="M584,132 L610,112 L636,132 Z" fill="#3A2F3A"></path><path d="M596,170 L596,188 M624,170 L624,188" stroke="#2A3655" stroke-width="3"></path><path d="M260,206 Q278,222 296,206 Z" fill="#8A6A3E"></path><path d="M330,206 Q348,222 366,206 Z" fill="#8A6A3E"></path><path d="M0,262 C120,252 260,268 400,258 C500,252 580,262 640,256 L640,300 L0,300 Z" fill="#3A3F55"></path></svg>