<svg xmlns="http://www.w3.org/2000/svg" viewBox="0 0 140 140" width="140" height="140"><path d="M12,120 L30,84 L110,84 L128,120 Z" fill="#6B4E36"></path><path d="M30,84 L110,84" stroke="#8A6A48" stroke-width="4"></path><path d="M36,86 L33,76 M36,86 L37,74 M36,86 L41,77" stroke="#6FA587" stroke-width="2" stroke-linecap="round"></path><path d="M56,86 L53,76 M56,86 L57,74 M56,86 L61,77" stroke="#6FA587" stroke-width="2" stroke-linecap="round"></path><path d="M78,86 L75,76 M78,86 L79,74 M78,86 L83,77" stroke="#6FA587" stroke-width="2" stroke-linecap="round"></path><path d="M100,86 L97,76 M100,86 L101,74 M100,86 L105,77" stroke="#6FA587" stroke-width="2" stroke-linecap="round"></path></svg>